<?xml version="1.0" encoding="UTF-8" standalone="no"?>
<!DOCTYPE svg PUBLIC "-//W3C//DTD SVG 1.1//EN"
 "http://www.w3.org/Graphics/SVG/1.1/DTD/svg11.dtd">
<!-- Generated by graphviz version 2.26.3 (20100126.1600)
 -->
<!-- Title: controllers_diagram Pages: 1 -->
<svg width="610pt" height="416pt"
 viewBox="0.00 0.00 610.00 415.76" xmlns="http://www.w3.org/2000/svg" xmlns:xlink="http://www.w3.org/1999/xlink">
<g id="graph1" class="graph" transform="scale(1 1) rotate(0) translate(4 411.765)">
<title>controllers_diagram</title>
<polygon fill="white" stroke="white" points="-4,5 -4,-411.765 607,-411.765 607,5 -4,5"/>
<!-- _diagram_info -->
<g id="node1" class="node"><title>_diagram_info</title>
<text text-anchor="start" x="359" y="-148.3" font-family="Times Roman,serif" font-size="13.00">Controllers diagram</text>
<text text-anchor="start" x="359" y="-131.3" font-family="Times Roman,serif" font-size="13.00">Date: May 18 2013 &#45; 12:23</text>
<text text-anchor="start" x="359" y="-114.3" font-family="Times Roman,serif" font-size="13.00">Migration version: 20130518091747</text>
<text text-anchor="start" x="359" y="-97.3" font-family="Times Roman,serif" font-size="13.00">Generated by RailRoady 1.1.0</text>
<text text-anchor="start" x="359" y="-80.3" font-family="Times Roman,serif" font-size="13.00">http://railroady.prestonlee.com</text>
</g>
<!-- ApplicationController -->
<g id="node2" class="node"><title>ApplicationController</title>
<polyline fill="none" stroke="black" points="13,-290.837 227,-290.837 "/>
<path fill="none" stroke="black" d="M227,-290.837C233,-290.837 239,-296.837 239,-302.837"/>
<polyline fill="none" stroke="black" points="239,-302.837 239,-380.837 "/>
<path fill="none" stroke="black" d="M239,-380.837C239,-386.837 233,-392.837 227,-392.837"/>
<polyline fill="none" stroke="black" points="227,-392.837 13,-392.837 "/>
<path fill="none" stroke="black" d="M13,-392.837C7,-392.837 1,-386.837 1,-380.837"/>
<polyline fill="none" stroke="black" points="1,-380.837 1,-302.837 "/>
<path fill="none" stroke="black" d="M1,-302.837C1,-296.837 7,-290.837 13,-290.837"/>
<text text-anchor="middle" x="120" y="-376.237" font-family="Times Roman,serif" font-size="14.00">ApplicationController</text>
<polyline fill="none" stroke="black" points="1,-366.837 239,-366.837 "/>
<text text-anchor="start" x="9" y="-350.237" font-family="Times Roman,serif" font-size="14.00">_one_time_conditions_valid_12?</text>
<polyline fill="none" stroke="black" points="1,-340.837 239,-340.837 "/>
<polyline fill="none" stroke="black" points="1,-316.837 239,-316.837 "/>
<text text-anchor="start" x="9" y="-300.237" font-family="Times Roman,serif" font-size="14.00">_layout</text>
</g>
<!-- CommentsController -->
<g id="node3" class="node"><title>CommentsController</title>
<polyline fill="none" stroke="black" points="264.343,-286.265 399.343,-286.265 "/>
<path fill="none" stroke="black" d="M399.343,-286.265C405.343,-286.265 411.343,-292.265 411.343,-298.265"/>
<polyline fill="none" stroke="black" points="411.343,-298.265 411.343,-394.265 "/>
<path fill="none" stroke="black" d="M411.343,-394.265C411.343,-400.265 405.343,-406.265 399.343,-406.265"/>
<polyline fill="none" stroke="black" points="399.343,-406.265 264.343,-406.265 "/>
<path fill="none" stroke="black" d="M264.343,-406.265C258.343,-406.265 252.343,-400.265 252.343,-394.265"/>
<polyline fill="none" stroke="black" points="252.343,-394.265 252.343,-298.265 "/>
<path fill="none" stroke="black" d="M252.343,-298.265C252.343,-292.265 258.343,-286.265 264.343,-286.265"/>
<text text-anchor="middle" x="331.843" y="-389.665" font-family="Times Roman,serif" font-size="14.00">CommentsController</text>
<polyline fill="none" stroke="black" points="252.343,-380.265 411.343,-380.265 "/>
<text text-anchor="start" x="260.343" y="-363.665" font-family="Times Roman,serif" font-size="14.00">create</text>
<text text-anchor="start" x="260.343" y="-345.665" font-family="Times Roman,serif" font-size="14.00">destroy</text>
<polyline fill="none" stroke="black" points="252.343,-336.265 411.343,-336.265 "/>
<polyline fill="none" stroke="black" points="252.343,-312.265 411.343,-312.265 "/>
<text text-anchor="start" x="260.343" y="-295.665" font-family="Times Roman,serif" font-size="14.00">_layout</text>
</g>
<!-- ApplicationController&#45;&gt;CommentsController -->
<g id="edge2" class="edge"><title>ApplicationController&#45;&gt;CommentsController</title>
<path fill="none" stroke="black" d="M239.234,-344.329C243.561,-344.419 247.859,-344.509 252.097,-344.598"/>
</g>
<!-- PostsController -->
<g id="node4" class="node"><title>PostsController</title>
<polyline fill="none" stroke="black" points="179.835,-1.5 277.835,-1.5 "/>
<path fill="none" stroke="black" d="M277.835,-1.5C283.835,-1.5 289.835,-7.5 289.835,-13.5"/>
<polyline fill="none" stroke="black" points="289.835,-13.5 289.835,-199.5 "/>
<path fill="none" stroke="black" d="M289.835,-199.5C289.835,-205.5 283.835,-211.5 277.835,-211.5"/>
<polyline fill="none" stroke="black" points="277.835,-211.5 179.835,-211.5 "/>
<path fill="none" stroke="black" d="M179.835,-211.5C173.835,-211.5 167.835,-205.5 167.835,-199.5"/>
<polyline fill="none" stroke="black" points="167.835,-199.5 167.835,-13.5 "/>
<path fill="none" stroke="black" d="M167.835,-13.5C167.835,-7.5 173.835,-1.5 179.835,-1.5"/>
<text text-anchor="middle" x="228.835" y="-194.9" font-family="Times Roman,serif" font-size="14.00">PostsController</text>
<polyline fill="none" stroke="black" points="167.835,-185.5 289.835,-185.5 "/>
<text text-anchor="start" x="175.835" y="-168.9" font-family="Times Roman,serif" font-size="14.00">create</text>
<text text-anchor="start" x="175.835" y="-150.9" font-family="Times Roman,serif" font-size="14.00">destroy</text>
<text text-anchor="start" x="175.835" y="-132.9" font-family="Times Roman,serif" font-size="14.00">edit</text>
<text text-anchor="start" x="175.835" y="-114.9" font-family="Times Roman,serif" font-size="14.00">index</text>
<text text-anchor="start" x="175.835" y="-96.9" font-family="Times Roman,serif" font-size="14.00">new</text>
<text text-anchor="start" x="175.835" y="-78.9" font-family="Times Roman,serif" font-size="14.00">show</text>
<text text-anchor="start" x="175.835" y="-60.9" font-family="Times Roman,serif" font-size="14.00">update</text>
<polyline fill="none" stroke="black" points="167.835,-51.5 289.835,-51.5 "/>
<polyline fill="none" stroke="black" points="167.835,-27.5 289.835,-27.5 "/>
<text text-anchor="start" x="175.835" y="-10.9" font-family="Times Roman,serif" font-size="14.00">_layout</text>
</g>
<!-- ApplicationController&#45;&gt;PostsController -->
<g id="edge4" class="edge"><title>ApplicationController&#45;&gt;PostsController</title>
<path fill="none" stroke="black" d="M143.616,-290.772C154.369,-267.52 167.514,-239.095 180.232,-211.596"/>
</g>
</g>
</svg>
