<?xml version="1.0" encoding="UTF-8" standalone="no"?>
<!DOCTYPE svg PUBLIC "-//W3C//DTD SVG 1.1//EN"
 "http://www.w3.org/Graphics/SVG/1.1/DTD/svg11.dtd">
<!-- Generated by graphviz version 2.26.3 (20100126.1600)
 -->
<!-- Title: models_diagram Pages: 1 -->
<svg width="440pt" height="350pt"
 viewBox="0.00 0.00 440.00 350.00" xmlns="http://www.w3.org/2000/svg" xmlns:xlink="http://www.w3.org/1999/xlink">
<g id="graph1" class="graph" transform="scale(1 1) rotate(0) translate(4 346)">
<title>models_diagram</title>
<polygon fill="white" stroke="white" points="-4,5 -4,-346 437,-346 437,5 -4,5"/>
<!-- _diagram_info -->
<g id="node1" class="node"><title>_diagram_info</title>
<text text-anchor="start" x="8" y="-291.8" font-family="Times Roman,serif" font-size="13.00">Models diagram</text>
<text text-anchor="start" x="8" y="-274.8" font-family="Times Roman,serif" font-size="13.00">Date: May 18 2013 &#45; 12:23</text>
<text text-anchor="start" x="8" y="-257.8" font-family="Times Roman,serif" font-size="13.00">Migration version: 20130518091747</text>
<text text-anchor="start" x="8" y="-240.8" font-family="Times Roman,serif" font-size="13.00">Generated by RailRoady 1.1.0</text>
<text text-anchor="start" x="8" y="-223.8" font-family="Times Roman,serif" font-size="13.00">http://railroady.prestonlee.com</text>
</g>
<!-- Comment -->
<g id="node2" class="node"><title>Comment</title>
<polyline fill="none" stroke="black" points="279.5,-1 420.5,-1 "/>
<path fill="none" stroke="black" d="M420.5,-1C426.5,-1 432.5,-7 432.5,-13"/>
<polyline fill="none" stroke="black" points="432.5,-13 432.5,-131 "/>
<path fill="none" stroke="black" d="M432.5,-131C432.5,-137 426.5,-143 420.5,-143"/>
<polyline fill="none" stroke="black" points="420.5,-143 279.5,-143 "/>
<path fill="none" stroke="black" d="M279.5,-143C273.5,-143 267.5,-137 267.5,-131"/>
<polyline fill="none" stroke="black" points="267.5,-131 267.5,-13 "/>
<path fill="none" stroke="black" d="M267.5,-13C267.5,-7 273.5,-1 279.5,-1"/>
<text text-anchor="middle" x="350" y="-126.4" font-family="Times Roman,serif" font-size="14.00">Comment</text>
<polyline fill="none" stroke="black" points="267.5,-117 432.5,-117 "/>
<text text-anchor="start" x="275.5" y="-100.4" font-family="Times Roman,serif" font-size="14.00">id :integer</text>
<text text-anchor="start" x="275.5" y="-82.4" font-family="Times Roman,serif" font-size="14.00">commenter :string</text>
<text text-anchor="start" x="275.5" y="-64.4" font-family="Times Roman,serif" font-size="14.00">body :text</text>
<text text-anchor="start" x="275.5" y="-46.4" font-family="Times Roman,serif" font-size="14.00">post_id :integer</text>
<text text-anchor="start" x="275.5" y="-28.4" font-family="Times Roman,serif" font-size="14.00">created_at :datetime</text>
<text text-anchor="start" x="275.5" y="-10.4" font-family="Times Roman,serif" font-size="14.00">updated_at :datetime</text>
</g>
<!-- Post -->
<g id="node3" class="node"><title>Post</title>
<polyline fill="none" stroke="black" points="279.5,-181 420.5,-181 "/>
<path fill="none" stroke="black" d="M420.5,-181C426.5,-181 432.5,-187 432.5,-193"/>
<polyline fill="none" stroke="black" points="432.5,-193 432.5,-329 "/>
<path fill="none" stroke="black" d="M432.5,-329C432.5,-335 426.5,-341 420.5,-341"/>
<polyline fill="none" stroke="black" points="420.5,-341 279.5,-341 "/>
<path fill="none" stroke="black" d="M279.5,-341C273.5,-341 267.5,-335 267.5,-329"/>
<polyline fill="none" stroke="black" points="267.5,-329 267.5,-193 "/>
<path fill="none" stroke="black" d="M267.5,-193C267.5,-187 273.5,-181 279.5,-181"/>
<text text-anchor="middle" x="350" y="-324.4" font-family="Times Roman,serif" font-size="14.00">Post</text>
<polyline fill="none" stroke="black" points="267.5,-315 432.5,-315 "/>
<text text-anchor="start" x="275.5" y="-298.4" font-family="Times Roman,serif" font-size="14.00">id :integer</text>
<text text-anchor="start" x="275.5" y="-280.4" font-family="Times Roman,serif" font-size="14.00">name :string</text>
<text text-anchor="start" x="275.5" y="-262.4" font-family="Times Roman,serif" font-size="14.00">title :string</text>
<text text-anchor="start" x="275.5" y="-244.4" font-family="Times Roman,serif" font-size="14.00">content :text</text>
<text text-anchor="start" x="275.5" y="-226.4" font-family="Times Roman,serif" font-size="14.00">created_at :datetime</text>
<text text-anchor="start" x="275.5" y="-208.4" font-family="Times Roman,serif" font-size="14.00">updated_at :datetime</text>
<text text-anchor="start" x="275.5" y="-190.4" font-family="Times Roman,serif" font-size="14.00">published :boolean</text>
</g>
<!-- Post&#45;&gt;Comment -->
<g id="edge2" class="edge"><title>Post&#45;&gt;Comment</title>
<path fill="none" stroke="#f32b1e" d="M350,-172.62C350,-166.323 350,-159.99 350,-153.732"/>
<ellipse fill="none" stroke="#f32b1e" cx="350" cy="-176.847" rx="4" ry="4"/>
<polygon fill="#f32b1e" stroke="#f32b1e" points="350,-153.293 354.5,-143.293 350,-148.293 350,-143.293 350,-143.293 350,-143.293 350,-148.293 345.5,-143.293 350,-153.293 350,-153.293"/>
</g>
</g>
</svg>
